<svg width="18" height="25" viewBox="0 0 18 25" fill="none" xmlns="http://www.w3.org/2000/svg">
<g filter="url(#filter0_b_4_38)">
<path d="M12.19 0.589998C13.25 0.589998 14.19 0.839999 15.01 1.34C15.83 1.84 16.46 2.53 16.9 3.41C17.36 4.27 17.59 5.24 17.59 6.32C17.59 7.92 17.13 9.56 16.21 11.24C15.31 12.9 14.12 14.28 12.64 15.38C11.18 16.46 9.66 17 8.08 17C7.4 17 6.72 16.73 6.04 16.19C5.8 17.19 5.61 18.21 5.47 19.25C5.35 20.31 5.28 20.93 5.26 21.11C5.1 22.47 4.94 23.45 4.78 24.05C4.64 24.65 4.41 24.95 4.09 24.95C3.57 24.95 2.99 24.78 2.35 24.44C1.73 24.1 1.2 23.69 0.76 23.21C0.3 22.75 0.07 22.35 0.07 22.01C0.07 21.63 0.24 20.79 0.58 19.49C0.92 18.19 1.44 16.31 2.14 13.85C2.76 11.65 3.24 9.92 3.58 8.66C3.92 7.4 4.09 6.6 4.09 6.26C4.09 6.1 4 5.94 3.82 5.78C3.66 5.6 3.39 5.35 3.01 5.03C2.59 4.69 2.28 4.42 2.08 4.22C1.88 4.02 1.78 3.81 1.78 3.59C1.78 3.17 1.97 2.68 2.35 2.12C2.75 1.56 3.21 1.08 3.73 0.679999C4.27 0.279999 4.73 0.0799997 5.11 0.0799997C5.69 0.0799997 6.35 0.4 7.09 1.04C7.83 1.68 8.36 2.32 8.68 2.96L9.85 0.979999C10.63 0.719999 11.41 0.589998 12.19 0.589998ZM8.08 13.16C8.72 13.16 9.42 12.83 10.18 12.17C10.94 11.49 11.58 10.66 12.1 9.68C12.62 8.68 12.88 7.73 12.88 6.83C12.88 6.17 12.72 5.66 12.4 5.3C12.08 4.94 11.62 4.76 11.02 4.76C10.32 4.76 9.68 5.16 9.1 5.96C8.54 6.74 8.09 7.7 7.75 8.84C7.43 9.98 7.27 11.03 7.27 11.99C7.27 12.37 7.34 12.66 7.48 12.86C7.64 13.06 7.84 13.16 8.08 13.16Z" fill="#0148FF"/>
</g>
<defs>
<filter id="filter0_b_4_38" x="-3.93" y="-3.92001" width="25.52" height="32.87" filterUnits="userSpaceOnUse" color-interpolation-filters="sRGB">
<feFlood flood-opacity="0" result="BackgroundImageFix"/>
<feGaussianBlur in="BackgroundImageFix" stdDeviation="2"/>
<feComposite in2="SourceAlpha" operator="in" result="effect1_backgroundBlur_4_38"/>
<feBlend mode="normal" in="SourceGraphic" in2="effect1_backgroundBlur_4_38" result="shape"/>
</filter>
</defs>
</svg>
